<svg viewBox="0 0 58 58" fill="none" xmlns="http://www.w3.org/2000/svg">
<path fill-rule="evenodd" clip-rule="evenodd" d="M14.4227 9.66675H43.5773C44.6373 9.66672 45.552 9.6667 46.3091 9.71834C47.1061 9.77274 47.9034 9.89237 48.6912 10.2186C50.4675 10.9544 51.879 12.3659 52.6147 14.1423C52.9409 14.93 53.0606 15.7272 53.1152 16.5243C53.1666 17.2814 53.1666 18.196 53.1666 19.2561V38.7441C53.1666 39.804 53.1666 40.7187 53.1152 41.4759C53.0606 42.2729 52.9409 43.0702 52.6147 43.858C51.879 45.6342 50.4675 47.0458 48.6912 47.7814C47.9034 48.1077 47.1061 48.2273 46.3091 48.2819C45.552 48.3334 44.6373 48.3334 43.5773 48.3334H14.4227C13.3626 48.3334 12.4479 48.3334 11.6909 48.2819C10.8938 48.2273 10.0965 48.1077 9.30886 47.7814C7.53242 47.0458 6.12101 45.6342 5.38518 43.858C5.05893 43.0702 4.93931 42.2729 4.88491 41.4759C4.83327 40.7187 4.83329 39.804 4.83331 38.7441V19.2561C4.83329 18.1961 4.83327 17.2814 4.88491 16.5243C4.93931 15.7272 5.05893 14.93 5.38518 14.1423C6.12101 12.3659 7.53242 10.9544 9.30886 10.2186C10.0965 9.89237 10.8938 9.77274 11.6909 9.71834C12.4479 9.6667 13.3626 9.66672 14.4227 9.66675ZM10.4338 15.1714C11.3127 14.1669 12.8395 14.0651 13.844 14.944L27.4086 26.813C28.3197 27.6103 29.6803 27.6103 30.5914 26.813L44.1561 14.944C45.1605 14.0651 46.6873 14.1669 47.566 15.1714C48.445 16.1758 48.3432 17.7026 47.3388 18.5815L33.7741 30.4506C31.0406 32.8423 26.9593 32.8423 24.2259 30.4506L10.6612 18.5815C9.65671 17.7026 9.55492 16.1758 10.4338 15.1714Z" fill="currentColor"/>
</svg>
